PathFileType	4	(X/Y/Z)	49_1_rein_52_p1_0-257_filt_butterworth.trc
DataRate	CameraRate	NumFrames	NumMarkers	Units	OrigDataRate	OrigDataStartFrame	OrigNumFrames
44.0	44.0	7	27	m	44.0	64	257
Frame#	Time	RHip			RKnee			RAnkle			RBigToe			RSmallToe			RHeel			LHip			LKnee			LAnkle			LBigToe			LSmallToe			LHeel			Neck			Head			Nose			RShoulder			RElbow			RWrist			RThumb			RIndex			RPinky			LShoulder			LElbow			LWrist			LThumb			LIndex			LPinky			
		X1	Y1	Z1	X2	Y2	Z2	X3	Y3	Z3	X4	Y4	Z4	X5	Y5	Z5	X6	Y6	Z6	X7	Y7	Z7	X8	Y8	Z8	X9	Y9	Z9	X10	Y10	Z10	X11	Y11	Z11	X12	Y12	Z12	X13	Y13	Z13	X14	Y14	Z14	X15	Y15	Z15	X16	Y16	Z16	X17	Y17	Z17	X18	Y18	Z18	X19	Y19	Z19	X20	Y20	Z20	X21	Y21	Z21	X22	Y22	Z22	X23	Y23	Z23	X24	Y24	Z24	X25	Y25	Z25	X26	Y26	Z26	X27	Y27	Z27	
64	1.4545454545454546	0.3828902538795852	0.6183134952920953	0.7251620132917027	0.34486631875019613	0.8121962686157926	1.1799511448300901	0.3329399348130759	1.029727509980747	1.5918819390514896	0.2996979771853871	0.8210373322567817	1.6621642469535833	0.3670242759611788	0.831462591692586	1.6604156739652436	0.32456976932164955	1.152290304555922	1.6335933797465063	0.16468045824147004	0.6502536552231748	0.725795822087876	0.16836870118255873	0.8612701254342661	1.1783075871834798	0.1852458300762248	1.0642344492341094	1.586269706796833	0.1562927146580631	0.8203287021119863	1.6492004806199856	0.11704325111697589	0.9159500704713559	1.652937205498234	0.20340649359871135	1.1578950555874261	1.6404196306380983	0.2751835078206779	0.4412172644548444	0.2543514714176043	0.2682913381764064	0.31224361435368314	0.037942991486351905	0.2653087024715444	0.27724730216980964	0.19533429550729417	0.42053285768144166	0.44817186454975166	0.28695889616502235	0.4604926750449631	0.2747192314392461	0.39870575900708005	0.40848317543600027	0.023741663765138327	0.5001733535385419	0.3293283436216186	-0.0464140144348166	0.5521491957043249	0.3726478159669635	-0.11843646459570281	0.5840905215810365	0.4070444309703544	-0.10300274524472683	0.6064817866967862	0.1136364376171613	0.4851830317647587	0.28656023898045535	0.006949551002123029	0.4539199884383418	0.5036291174816744	-0.031660855713951726	0.339030390714836	0.7353139391862439	-0.002905979170264639	0.24689961363174626	0.8383109360715137	-0.025828929958220156	0.2248452972876011	0.8653816010855342	-0.0750861646866437	0.2962400564144757	0.8564819153478258
65	1.4772727272727273	0.3827757956918389	0.618549326788929	0.7251478161603413	0.3451023713370657	0.8168327073220945	1.180368799806797	0.3353100023014478	1.0289564097680377	1.5912882944614961	0.29944536711402764	0.8208095598294814	1.660323122041183	0.3671789741584964	0.8316477950843602	1.6604247308786642	0.32467066520436266	1.1529471559353335	1.6326599539515643	0.16457270202342275	0.6504410116085798	0.726023381823795	0.16828787117259325	0.8613173902996366	1.1783668187215022	0.18635395039411423	1.0558071066639294	1.5853534218304048	0.1563898942998731	0.8207503711908566	1.6494090064713924	0.11695493465750842	0.9159247292123358	1.6526786653184216	0.20525855001696278	1.1645307126362119	1.6408873402414417	0.27613436970777705	0.4374796732062394	0.2554386594092111	0.26875764378206607	0.30553373096063746	0.040072852215619834	0.26560015154912126	0.2771174886756872	0.19609655285542246	0.4230347787808079	0.4480727254987471	0.28584773560057236	0.4594512842268098	0.26049591091341695	0.40857237436480975	0.40242921927640607	0.02317062892325772	0.5145901908340291	0.3365980709500779	-0.03792386147478331	0.5656209786803215	0.3694658166624688	-0.11469318151137235	0.6009612823250795	0.40719766191262163	-0.10054526681940382	0.6173427099029942	0.11096779287553508	0.47466273874220544	0.2889629240009327	0.004553497774531829	0.4569145889246092	0.5038424109493694	-0.02980925367764796	0.34285124936448147	0.7368576050474609	-0.0009016061562599299	0.2589454921839687	0.8409445956782907	-0.022825131228839692	0.2312759795150933	0.8688570124823651	-0.07405535616181311	0.30256150133443593	0.8641634186614566
66	1.5	0.38279937978822637	0.6186741145910849	0.725144465413204	0.3454753833521366	0.8223666126515615	1.178757882356946	0.3362726952581242	1.0295251103584246	1.592419375343914	0.2993533426355139	0.8211127927917556	1.6591082334416458	0.36719086774682	0.83168859671787	1.6605247272342631	0.32441812998052366	1.1522116512743557	1.6322075223486259	0.1643942437109107	0.6585358783909775	0.7251831126428674	0.16814848073939917	0.8613819128281253	1.1783467925462223	0.18742044488417342	1.0504194230994803	1.5830729811673248	0.15724810048719046	0.8248320272333484	1.6506347364779774	0.11693675575309244	0.9161009579979584	1.6528231644003193	0.20803598260785106	1.17096662886077	1.6419434978717815	0.2764407119851976	0.432694190963322	0.2577606935734415	0.26974394872310475	0.2999634045568733	0.042090163045248985	0.2655811749706466	0.2741613929339418	0.1985298812300072	0.42597752657889765	0.44729514571427087	0.28562334654667054	0.45838449216202354	0.2455069295792996	0.4228913873208977	0.3966733741014489	0.02152787115188015	0.5276023433705386	0.3377190234936797	-0.03553148253450608	0.5835078053990816	0.3622329195809497	-0.1136463122956595	0.6168796689359374	0.4045359936345428	-0.09869739285679549	0.6288094843237539	0.10904113981046312	0.46696346368492214	0.29107129374828355	0.0034038838212292724	0.46153467783715946	0.5049711101631374	-0.028762993081428437	0.3489389537252057	0.7398219509703623	0.0025913845872752345	0.2805997683968185	0.8450541060855471	-0.019299520619925868	0.24244864576552816	0.8732337000865796	-0.07395701854566267	0.30429320893360456	0.869346501789673
67	1.5227272727272727	0.38303175313302373	0.6182009290136556	0.7252245008068833	0.3465559285994617	0.8248822097167989	1.1766323181482887	0.3353336006070623	1.0357226592553337	1.5937020638894883	0.2992227644950036	0.821104592678159	1.659475339743738	0.3670576532543067	0.8314377915495534	1.6605518389418121	0.3243348775896252	1.1519330982747125	1.6322910539920676	0.1641385766039156	0.6714872604242483	0.7229251162014164	0.16815767261033232	0.8613948013846584	1.1782247347207544	0.1878140615392739	1.0499988992579703	1.5812520819899394	0.1586137242855574	0.831258748594813	1.6522940653827103	0.11695273916672361	0.9164808301092653	1.6531261659656855	0.20936663300875075	1.1729545518314162	1.6429404512518189	0.2763303370557666	0.4295922275351673	0.25994585109973023	0.27002752263484864	0.29757796839389794	0.04400939697608336	0.2654295894831969	0.2693378552735447	0.2021997222533588	0.4268766929845687	0.4466287268517929	0.2873529811052182	0.45838845338826884	0.23676695303574147	0.4352393519330443	0.39190657965697184	0.01921597829917507	0.5352780336624281	0.3306673716133604	-0.030520465723022132	0.5966142273585935	0.3527249950376931	-0.10726393544193177	0.6277280957634858	0.39863678308417144	-0.09693334307768021	0.6405614506364685	0.10777141231328044	0.46178398579057633	0.2930529488645749	0.0034124818385846832	0.4644287543371756	0.5070644363912999	-0.028626082022407334	0.35159705114517203	0.7444051432001646	0.005299156430995227	0.29853992428945697	0.8515140006038995	-0.015386688703041891	0.25407089122712867	0.8793888492599616	-0.07403550286630753	0.30412012938979605	0.8705423226271255
68	1.5454545454545454	0.3830270991976432	0.6186598143885337	0.7254191405492454	0.3481752509435571	0.8244143363791738	1.1753821476532171	0.3348945031799225	1.0427166132492278	1.593736711962225	0.29889568991314863	0.8208208171038076	1.6617076135128082	0.36699257323814183	0.8313404989462914	1.660572055104799	0.32436605209717273	1.1520449845038863	1.6324066848149807	0.16393643499645552	0.6795502840221506	0.7204733719091405	0.16827732128775558	0.8613355655651158	1.178149710605693	0.18823355409291426	1.0512179754744442	1.5822104001860495	0.1594905805380121	0.8353435623619294	1.653180144540813	0.11686737214308576	0.9168612315338623	1.6531768623690097	0.20937564133776712	1.172622702087546	1.6440813655574884	0.27623191375074996	0.4292388895859563	0.2607439752019214	0.26985218418748996	0.29827044003527514	0.045641806967657184	0.2653300610159911	0.26454209020217434	0.2064926904428534	0.4262568333824413	0.44692276384322077	0.2897907641920221	0.4592458776908143	0.23381470983045016	0.4433647645806084	0.3887095708081147	0.017151899437479294	0.5383551036425899	0.32015274849111397	-0.012233464105450554	0.6002610230384693	0.34296350749258614	-0.09548098332437807	0.6332552433413192	0.39102400699437445	-0.09528594983446487	0.6521103253457292	0.1071496359770111	0.4590745043453184	0.29427019686532524	0.0036198690055614293	0.46607629299617725	0.5082524263531879	-0.028995547826634355	0.3509459437927708	0.7504847939497072	0.006558357681247285	0.30077870100538995	0.8573842047319173	-0.01318293562805288	0.26112312524813863	0.8844706739501442	-0.07186577570234014	0.3079267796628423	0.8706895053374685
69	1.568181818181818	0.3821533538528471	0.6228265043972367	0.7252029207246291	0.34921573292809444	0.8238328992848164	1.1750895910606345	0.33600314035282397	1.0415319338902855	1.5924803728488235	0.29849700938880686	0.8210160762770322	1.664485519083039	0.36712516840705556	0.8317212090143082	1.660644996508632	0.32438586954202897	1.1521792136646816	1.632443694916448	0.16386915008471567	0.6805109689511909	0.719454757170578	0.16836760543410667	0.8612422452789354	1.1781949206125266	0.18854071772258113	1.051318530410192	1.5836453815500169	0.15959701952449995	0.8358433278078844	1.6531080055525045	0.11660638551426526	0.9171338780454134	1.6533732671082535	0.20881001384689787	1.1721408981673087	1.6449561906798138	0.27624164315256505	0.42989976938025376	0.2611258497716292	0.26993615084722933	0.2986227559278185	0.04654379392209726	0.26582453789202476	0.25982137627566343	0.2104601908906785	0.4259662451714736	0.4465937512117356	0.2909819485624273	0.4598822737745804	0.23336664428068055	0.44838997200703334	0.3886263777078277	0.018240095711828188	0.5396817795965163	0.3129059893005802	0.012308416661494214	0.6000157656222629	0.33397519268855913	-0.08681003041758276	0.6363427974807703	0.38584534418098215	-0.09333907377436212	0.6609260247312807	0.10713439585584061	0.45899336979830585	0.2952346125642308	0.00416383323874535	0.46693817192430076	0.5095567633540512	-0.02862512489164077	0.3514796653366131	0.7569916562889492	0.007667189233928702	0.29367727441354546	0.860157126102155	-0.012184944080749273	0.26503790319401155	0.8866951221352177	-0.0658354690150649	0.31662573892272583	0.8731422429202413
70	1.5909090909090908	0.38068376864342673	0.6294283480417593	0.7236904626604558	0.3493428867159106	0.824188956594432	1.175142120051714	0.33771450472435566	1.0329775014034803	1.5907407855791846	0.2981988418331654	0.8216317885106477	1.6662298186376652	0.36726336527398046	0.8320273442785766	1.6606810555770806	0.3243641511373272	1.1521709925520018	1.6324002855361641	0.16387782277281573	0.6793932042648472	0.7192892740025045	0.16841416435410167	0.861048991553846	1.1782024348673799	0.18828480248755444	1.051143899975022	1.5819363202262542	0.15946320168932188	0.8352748721527081	1.6527453268244559	0.11638589489441212	0.9170766532677197	1.6544139327670138	0.20775484830309132	1.1707068261379776	1.6446935387851025	0.27639148995150414	0.430774204462093	0.2627644545582967	0.27085547619306055	0.2953400240774775	0.04669129031835302	0.26730564437013415	0.255183736305886	0.21295718273770398	0.4267650668466835	0.4426867633346011	0.2908456240779183	0.4602735007755453	0.2339824792819327	0.4526254299145178	0.3910116610546111	0.024442813214082912	0.5418025890755572	0.3109896395493066	0.026880287966448556	0.6024250045918029	0.32579017861996656	-0.08282658545970939	0.6397353560130501	0.38458924588277	-0.08927586358680542	0.6656969685757667	0.10732608149997627	0.4604060993318085	0.29764624975646226	0.005981817452616219	0.4656692972488251	0.5136809364220671	-0.026038598704852912	0.35290851813849566	0.7613030652996767	0.009113914219869786	0.2903090355514304	0.8599863256943842	-0.009873005441704554	0.26861521956676604	0.8874459409558544	-0.05726053441993317	0.32550809556023697	0.8780310233056761
